<svg id="darkMode" width="34" height="34" viewBox="0 0 34 34" fill="none" xmlns="http://www.w3.org/2000/svg">
<path d="M29.7361 21.6516C29.5555 21.4721 29.2934 21.4036 29.0485 21.469C27.8594 21.7937 26.6655 21.9584 25.4999 21.9584C18.079 21.9584 12.0416 15.9209 12.0416 8.50002C12.0416 7.33341 12.2062 6.13948 12.5313 4.95109C12.5984 4.70587 12.5286 4.44336 12.3487 4.26351C12.1696 4.084 11.906 4.01518 11.6611 4.08089C5.21212 5.84238 0.708252 11.7377 0.708252 18.4167C0.708252 26.6189 7.38139 33.2917 15.5833 33.2917C22.2626 33.2917 28.1576 28.7878 29.9187 22.3391C29.9858 22.0936 29.9159 21.8314 29.7361 21.6516Z" fill="#EFD358"/>
<path d="M24.0833 3.54168C22.9115 3.54168 21.9583 2.58847 21.9583 1.41668C21.9583 1.0255 21.6414 0.708344 21.2499 0.708344C20.8584 0.708344 20.5416 1.0255 20.5416 1.41668C20.5416 2.58847 19.5884 3.54168 18.4166 3.54168C18.0251 3.54168 17.7083 3.85884 17.7083 4.25001C17.7083 4.64118 18.0251 4.95834 18.4166 4.95834C19.5884 4.95834 20.5416 5.91155 20.5416 7.08334C20.5416 7.47452 20.8584 7.79168 21.2499 7.79168C21.6414 7.79168 21.9583 7.47452 21.9583 7.08334C21.9583 5.91155 22.9115 4.95834 24.0833 4.95834C24.4748 4.95834 24.7916 4.64118 24.7916 4.25001C24.7916 3.85884 24.4748 3.54168 24.0833 3.54168Z" fill="#C6C6C6"/>
<path d="M32.5833 12.0417C31.4115 12.0417 30.4583 11.0885 30.4583 9.91668C30.4583 9.5255 30.1414 9.20834 29.7499 9.20834C29.3584 9.20834 29.0416 9.5255 29.0416 9.91668C29.0416 11.0885 28.0884 12.0417 26.9166 12.0417C26.5251 12.0417 26.2083 12.3588 26.2083 12.75C26.2083 13.1412 26.5251 13.4583 26.9166 13.4583C28.0884 13.4583 29.0416 14.4115 29.0416 15.5833C29.0416 15.9745 29.3584 16.2917 29.7499 16.2917C30.1414 16.2917 30.4583 15.9745 30.4583 15.5833C30.4583 14.4115 31.4115 13.4583 32.5833 13.4583C32.9748 13.4583 33.2916 13.1412 33.2916 12.75C33.2916 12.3588 32.9748 12.0417 32.5833 12.0417Z" fill="#C6C6C6"/>
</svg>
