<svg id="lightMode" width="46" height="46" viewBox="0 0 46 46" fill="none" xmlns="http://www.w3.org/2000/svg">
<path d="M23 8C22.4473 8 22 7.55225 22 7V1C22 0.44775 22.4473 0 23 0C23.5527 0 24 0.44775 24 1V7C24 7.55225 23.5527 8 23 8Z" fill="#EA9860"/>
<path d="M12.3935 12.3934C12.0026 12.7842 11.3697 12.7839 10.9793 12.3934L6.73661 8.15075C6.34611 7.76025 6.34577 7.12738 6.73661 6.73654C7.12745 6.34571 7.76033 6.34605 8.15082 6.73654L12.3935 10.9792C12.784 11.3697 12.7843 12.0026 12.3935 12.3934Z" fill="#EA9860"/>
<path d="M8 23C8 23.5527 7.55225 24 7 24H1C0.44775 24 0 23.5527 0 23C0 22.4473 0.44775 22 1 22H7C7.55225 22 8 22.4473 8 23Z" fill="#EA9860"/>
<path d="M12.3935 33.6066C12.7843 33.9974 12.784 34.6303 12.3935 35.0208L8.15082 39.2635C7.76032 39.654 7.12745 39.6543 6.73661 39.2635C6.34577 38.8726 6.34611 38.2397 6.73661 37.8492L10.9792 33.6066C11.3697 33.2161 12.0026 33.2158 12.3935 33.6066Z" fill="#EA9860"/>
<path d="M23 38C23.5527 38 24 38.4477 24 39V45C24 45.5522 23.5527 46 23 46C22.4473 46 22 45.5522 22 45V39C22 38.4477 22.4473 38 23 38Z" fill="#EA9860"/>
<path d="M33.6065 33.6066C33.9973 33.2158 34.6302 33.2161 35.0207 33.6066L39.2633 37.8492C39.6538 38.2397 39.6542 38.8726 39.2633 39.2634C38.8725 39.6543 38.2396 39.6539 37.8491 39.2634L33.6065 35.0208C33.216 34.6303 33.2156 33.9974 33.6065 33.6066Z" fill="#EA9860"/>
<path d="M38 23C38 22.4473 38.4477 22 39 22H45C45.5522 22 46 22.4473 46 23C46 23.5527 45.5522 24 45 24H39C38.4477 24 38 23.5527 38 23Z" fill="#EA9860"/>
<path d="M33.6067 12.3934C33.2159 12.0026 33.2162 11.3697 33.6067 10.9792L37.8494 6.73654C38.2399 6.34605 38.8727 6.34571 39.2636 6.73654C39.6544 7.12738 39.6541 7.76026 39.2636 8.15075L35.0209 12.3934C34.6304 12.7839 33.9976 12.7842 33.6067 12.3934Z" fill="#EA9860"/>
<path d="M23 36C15.832 36 10 30.1685 10 23C10 15.8315 15.832 10 23 10C30.168 10 36 15.8315 36 23C36 30.1685 30.168 36 23 36Z" fill="#EFD358"/>
</svg>
