<svg id="search" width="21" height="21" viewBox="0 0 21 21" fill="none" xmlns="http://www.w3.org/2000/svg">
<path d="M20.2068 18.8618L13.8665 12.5215C14.8503 11.2495 15.3826 9.69434 15.3826 8.05859C15.3826 6.10059 14.6184 4.26465 13.2366 2.88037C11.8547 1.49609 10.0139 0.734375 8.05835 0.734375C6.10278 0.734375 4.26196 1.49854 2.88013 2.88037C1.49585 4.26221 0.734131 6.10059 0.734131 8.05859C0.734131 10.0142 1.49829 11.855 2.88013 13.2368C4.26196 14.6211 6.10034 15.3828 8.05835 15.3828C9.69409 15.3828 11.2468 14.8506 12.5188 13.8691L18.8591 20.207C18.8777 20.2256 18.8998 20.2404 18.9241 20.2505C18.9484 20.2605 18.9744 20.2657 19.0007 20.2657C19.027 20.2657 19.0531 20.2605 19.0774 20.2505C19.1017 20.2404 19.1237 20.2256 19.1423 20.207L20.2068 19.145C20.2254 19.1264 20.2401 19.1044 20.2502 19.0801C20.2603 19.0558 20.2655 19.0297 20.2655 19.0034C20.2655 18.9771 20.2603 18.9511 20.2502 18.9268C20.2401 18.9025 20.2254 18.8804 20.2068 18.8618ZM11.9255 11.9258C10.8904 12.9585 9.51831 13.5273 8.05835 13.5273C6.59839 13.5273 5.22632 12.9585 4.19116 11.9258C3.15845 10.8906 2.5896 9.51856 2.5896 8.05859C2.5896 6.59863 3.15845 5.22412 4.19116 4.19141C5.22632 3.15869 6.59839 2.58984 8.05835 2.58984C9.51831 2.58984 10.8928 3.15625 11.9255 4.19141C12.9583 5.22656 13.5271 6.59863 13.5271 8.05859C13.5271 9.51856 12.9583 10.8931 11.9255 11.9258Z" fill="#000"/>
</svg>
